<?xml version="1.0" encoding="UTF-8"?>
<svg width="734.600054px" height="848.000294px" viewBox="0 0 734.600054 848.000294" version="1.1" xmlns="http://www.w3.org/2000/svg" xmlns:xlink="http://www.w3.org/1999/xlink">
    <title>i18n_hex_logo</title>
    <g id="i18n_hex_logo" stroke="none" stroke-width="1" fill="none" fill-rule="evenodd">
        <polygon id="hex_outside" fill="#235784" points="705.308027 195.085041 427.583619 34.7795053 367.300027 0 307.016435 34.7795053 29.2920272 195.085041 0 211.975088 0 636.025206 29.2920272 652.915253 310.41551 815.219611 367.300027 848.000294 424.184544 815.219611 705.308027 652.915253 734.600054 636.025206 734.600054 211.975088"></polygon>
        <polygon id="hex_inside" fill="#C4DFE3" points="724.909104 631.450445 367.300027 837.848464 9.69095022 631.450445 9.69095022 218.548671 367.300027 12.1506524 724.909104 218.548671"></polygon>
        <path d="M608.10377,374.17321 C595.44777,376.24121 588.725437,379.309637 579.137437,388.444637 C572.444437,394.821637 569.307108,401.096558 566.276108,411.999558 C565.073481,416.325009 564.062554,418.113663 563.738745,428.566737 C563.529168,435.33225 563.875874,446.481669 563.738745,461.751686 C563.506079,487.660353 563.506079,501.57702 563.738745,503.501686 L579.875745,503.501686 L579.924745,478.251686 C579.972745,453.553686 580.363601,433.119875 582.166601,418.677875 C583.290601,409.663875 586.17457,403.463914 592.87657,398.544914 C601.13957,392.478914 608.266373,390.126306 621.000373,390.123306 C635.462373,390.120306 642.750831,392.264661 649.027831,398.596661 C657.721831,407.365661 658.417315,416.456686 658.510315,470.251686 L658.568315,503.501686 L674.600745,503.501686 L674.600745,460.251686 C674.489584,450.025311 674.753789,440.086948 674.600745,433.304292 C674.386492,423.808938 673.657057,417.491491 673.045584,412.80249 C672.085975,405.443856 670.880479,402.12377 668.308287,397.039605 C665.854699,392.19045 661.512627,386.900003 656.602933,383.054379 C650.597033,378.350127 643.048502,375.250225 635.636585,373.682118 C628.224667,372.114012 620.75977,372.10521 608.10377,374.17321 Z" id="n" fill="#235784"></path>
        <path d="M433.469823,354.103128 C424.075823,374.179128 428.598406,391.219672 448.004406,402.414672 L453.761311,405.809865 L445.850677,410.123078 C441.532677,412.935078 435.454816,417.576309 432.662816,420.631309 C415.226816,439.709309 416.454612,469.053133 435.531831,488.967214 C446.260012,500.166009 459.142101,504.462997 477.748101,504.497711 C496.354101,504.530997 500.083437,502.161197 509.833677,497.719787 C514.885001,495.418818 521.747269,489.440616 526.738677,482.5889 C531.381857,476.215197 534.296767,469.055978 535.450946,464.162491 C537.845864,454.008518 537.122014,452.788614 536.728297,446.35014 C536.33458,439.911665 534.759788,434.588992 530.295705,427.222437 C525.749724,419.720735 518.085986,413.390917 509.524365,408.391887 L504.689626,405.809865 C507.277785,405.272235 509.659888,404.527534 511.835935,403.57576 C515.100004,402.1481 522.171405,397.018252 524.657689,392.007253 C527.143972,386.996254 528.820918,382.544855 529.181918,375.087855 C529.521918,368.071855 528.524677,365.312078 526.738677,359.947078 C518.964677,336.586078 493.667677,323.285078 467.703677,328.908078 C452.776677,332.140078 439.277823,341.693128 433.469823,354.103128 Z M446.102453,372.225108 C445.716815,379.193468 448.531012,385.738027 454.351167,390.367157 C460.416083,395.19096 466.621677,399.263987 478.703677,399.266987 C490.785677,399.269987 492.503149,396.942352 496.363283,394.780521 C500.377194,392.532569 506.068836,387.095814 508.594006,381.935013 C511.119175,376.774212 512.172423,373.660172 511.672423,369.437172 C510.460423,359.204172 501.275677,348.887078 490.900677,345.976078 C484.006677,344.042078 474.364652,344.042078 467.19967,345.976078 C463.339473,347.018038 456.580836,350.868965 452.038104,356.29082 C451.962561,356.380982 451.769941,356.455144 451.695975,356.546179 C447.962046,361.141806 446.40541,366.750771 446.102453,372.225108 Z M452.095297,480.625566 C461.423673,487.043455 468.096103,488.521735 478.968721,488.521735 C489.84134,488.521735 497.33831,485.337623 501.854675,482.981594 C506.37104,480.625566 515.092475,470.340177 516.503944,466.82393 C517.915413,463.307684 519.843732,456.006196 519.915626,451.842028 C519.987521,447.677859 519.056009,440.68873 515.325067,434.805135 C513.6211,432.118024 511.062485,428.725003 508.03241,425.790476 C504.427948,422.299673 500.222829,419.379416 496.921734,417.977999 C490.845589,415.398486 486.472889,414.648736 479.075744,414.648736 C471.6786,414.648736 465.547401,416.605828 461.010153,418.289631 C456.472904,419.973434 448.570805,425.571705 443.013535,434.401946 C438.867118,440.990409 437.705149,444.807193 437.705149,453.700504 C437.705149,462.593815 442.766921,474.207677 452.095297,480.625566 Z" id="eight" fill="#235784"></path>
        <path d="M383.664699,330.75 L383.664699,503.501686 L367.214699,503.501686 L367.214676,347.2 L340.365676,347.2 L350.45094,330.75 L383.664699,330.75 Z" id="one" fill="#235784"></path>
        <path d="M308.616873,376.000464 L308.616873,503.501686 L292.162388,503.501686 L292.162388,376.000464 L308.616873,376.000464 Z M300.389631,323.763609 C307.958042,323.763609 314.093452,329.899019 314.093452,337.46743 C314.093452,345.035842 307.958042,351.171251 300.389631,351.171251 C292.821219,351.171251 286.68581,345.035842 286.68581,337.46743 C286.68581,329.899019 292.821219,323.763609 300.389631,323.763609 Z" id="i" fill="#235784"></path>
        <circle id="globe_outline" stroke="#235784" stroke-width="7" cx="151.887406" cy="412.991537" r="93.5"></circle>
        <path d="M147.304454,330.99337 C137.955234,332.945707 129.053309,340.819218 121.997397,353.63315 C119.894739,357.451665 117.990064,361.689979 116.312704,366.260098 C125.775582,368.687229 136.244876,370.199603 147.304454,370.527742 L147.304454,330.99337 Z M156.470357,330.99337 L156.470357,370.527742 C167.529936,370.19777 177.99923,368.687229 187.462108,366.260098 C185.784748,361.689979 183.880073,357.451665 181.777415,353.631317 C174.71967,340.817385 165.817745,332.945707 156.470357,330.991537 L156.470357,330.99337 Z M123.634427,335.447999 C111.452952,339.887423 100.490165,347.137119 91.6362601,356.608402 C91.9350685,356.778888 92.2228779,356.95304 92.5271859,357.121693 C96.9928137,359.578155 102.023061,361.766972 107.496938,363.636817 C109.374115,358.465414 111.535435,353.625817 113.968066,349.207852 C116.809496,344.045616 120.052392,339.400336 123.634427,335.447999 L123.634427,335.447999 Z M180.140385,335.447999 C183.72242,339.400336 186.965316,344.045616 189.808579,349.207852 C192.239377,353.625817 194.400696,358.465414 196.274207,363.640483 C201.749917,361.770639 206.781998,359.579988 211.247626,357.11986 C211.553767,356.95304 211.839743,356.778888 212.138552,356.608402 C203.28445,347.137785 192.321679,339.888727 180.140385,335.449832 L180.140385,335.447999 Z M85.6820896,363.743141 C76.014073,376.71485 70.3935923,392.253601 69.5262693,408.408586 L99.421778,408.408586 C99.7755818,395.530492 101.616095,383.349007 104.684839,372.382921 C98.6940053,370.342591 93.1321355,367.92096 88.1073875,365.152857 C87.2806231,364.698228 86.4813564,364.217935 85.6839228,363.741308 L85.6820896,363.743141 Z M218.092722,363.743141 C217.295289,364.219768 216.497855,364.696395 215.669257,365.15469 C210.640843,367.922793 205.073474,370.346257 199.078973,372.386587 C202.136718,383.352674 203.969899,395.534158 204.32187,408.408586 L234.248542,408.408586 C233.381219,392.253601 227.760739,376.71485 218.092722,363.743141 L218.092722,363.743141 Z M113.495105,375.013535 C110.694005,385.090529 108.948817,396.406752 108.59318,408.408586 L147.304454,408.408586 L147.304454,379.671647 C135.286123,379.341674 123.880073,377.71931 113.495105,375.015368 L113.495105,375.013535 Z M190.279706,375.013535 C179.896572,377.717476 168.486856,379.339841 156.470357,379.669814 L156.470357,408.408586 L195.181631,408.408586 C194.825994,396.406752 193.080806,385.090529 190.279706,375.013535 Z M69.5281025,417.574488 C70.3948914,433.729279 76.0147279,449.268013 85.6820896,462.239933 C86.4795232,461.763306 87.2769567,461.286679 88.1055543,460.828384 C93.1284691,458.063948 98.6940053,455.640483 104.683006,453.596487 C101.614262,442.632234 99.7737487,430.452582 99.4199448,417.574488 L69.5262693,417.574488 L69.5281025,417.574488 Z M108.59318,417.574488 C108.948817,429.570822 110.692172,440.881546 113.491439,450.954873 C123.876407,448.243599 135.282456,446.613902 147.304454,446.282096 L147.304454,417.574488 L108.59318,417.574488 Z M156.470357,417.574488 L156.470357,446.282096 C168.492355,446.612069 179.898405,448.243599 190.283373,450.954873 C193.08264,440.881546 194.825994,429.570822 195.181631,417.574488 L156.470357,417.574488 Z M204.325536,417.574488 C203.973565,430.448916 202.140385,442.628567 199.08264,453.59282 C205.075307,455.636817 210.642676,458.062114 215.669257,460.830217 C216.496022,461.284846 217.295289,461.765139 218.092722,462.241766 C227.761077,449.269544 233.381576,433.730106 234.248542,417.574488 L204.325536,417.574488 L204.325536,417.574488 Z M147.304454,455.455332 C136.244876,455.785304 125.775582,457.295845 116.312704,459.722976 C117.990064,464.293095 119.894739,468.531409 121.997397,472.351757 C129.055142,485.165689 137.957067,493.037366 147.304454,494.991537 L147.304454,455.453498 L147.304454,455.455332 Z M156.470357,455.455332 L156.470357,494.989704 C165.819578,493.037366 174.721503,485.163856 181.777415,472.349924 C183.880073,468.531409 185.784748,464.293095 187.462108,459.722976 C177.99923,457.295845 167.529936,455.783471 156.470357,455.455332 L156.470357,455.455332 Z M196.274207,462.340758 C194.398863,467.513993 192.24121,472.355423 189.808579,476.773388 C186.965316,481.935625 183.72242,486.580905 180.140385,490.533242 C192.32186,486.093818 203.284647,478.844121 212.138552,469.372839 C211.839743,469.202353 211.551934,469.028201 211.247626,468.859548 C206.781998,466.403086 201.749917,464.210602 196.274207,462.340758 Z M107.496938,462.344424 C102.023061,464.214268 96.9928137,466.401253 92.5271859,468.861381 C92.2210447,469.028201 91.9350685,469.202353 91.6362601,469.372839 C100.490165,478.844121 111.452952,486.093818 123.634427,490.533242 C120.052392,486.580905 116.809496,481.935625 113.966233,476.773388 C111.535435,472.355423 109.374115,467.515827 107.496938,462.344424 L107.496938,462.344424 Z" id="globe" fill="#235784" fill-rule="nonzero"></path>
    </g>
</svg>